<?xml version="1.0" encoding="iso-8859-1"?>
<!-- Uploaded to: SVG Repo, www.svgrepo.com, Generator: SVG Repo Mixer Tools -->
<svg fill="#000000" height="800px" width="800px" version="1.1" id="Layer_1" xmlns="http://www.w3.org/2000/svg" xmlns:xlink="http://www.w3.org/1999/xlink" 
	 viewBox="0 0 512.001 512.001" xml:space="preserve">
<g>
	<g>
		<path d="M435.201,251.734c-11.887,0-23.108,2.799-33.169,7.637l-31.377-50.202c7.671-6.477,22.46-16.495,41.6-17.579
			c20.002-1.092,39.996,7.526,59.853,25.668c3.482,3.174,8.875,2.935,12.058-0.546c3.174-3.482,2.935-8.875-0.538-12.058
			c-23.475-21.444-47.957-31.565-72.567-30.089c-22.477,1.34-39.731,12.066-49.553,19.959l-47.07-75.315
			c-1.562-2.492-4.292-4.011-7.236-4.011h-17.067c0-4.71-3.814-8.533-8.533-8.533c-4.719,0-8.533,3.823-8.533,8.533h-8.533
			c-4.719,0-8.533,3.823-8.533,8.533c0,4.71,3.814,8.533,8.533,8.533h8.533c0,4.71,3.814,8.533,8.533,8.533
			c4.719,0,8.533-3.823,8.533-8.533h12.331l13.918,22.272l-4.983,9.958l-18.577-6.195c-1.468-0.495-3.038-0.58-4.548-0.23
			l-75.537,16.785L9.243,157.893c-3.652-0.307-6.938,1.673-8.448,4.915c-1.51,3.251-0.828,7.091,1.707,9.626l34.133,34.133
			c1.604,1.604,3.772,2.5,6.033,2.5h11.793l-2.355,4.719c-1.143,2.287-1.203,4.966-0.162,7.296c1.041,2.33,3.081,4.079,5.547,4.753
			l89.651,24.448l20.429,54.468l-16.947,2.825c-9.148-32.179-38.741-55.842-73.822-55.842c-42.351,0-76.8,34.458-76.8,76.8
			s34.449,76.8,76.8,76.8c42.351,0,76.8-34.458,76.8-76.8c0-1.391-0.137-2.739-0.205-4.113l26.513-4.42h118.758
			c3.806,0,7.159-2.526,8.209-6.187l16.461-57.609l34.816-34.85l29.406,47.053c-17.732,14.08-29.158,35.78-29.158,60.126
			c0,42.342,34.449,76.8,76.8,76.8s76.8-34.458,76.8-76.8S477.552,251.734,435.201,251.734z M76.801,388.267
			c-32.93,0-59.733-26.795-59.733-59.733s26.803-59.733,59.733-59.733c26.615,0,49.203,17.502,56.9,41.6l-58.3,9.719
			c-4.173,0.691-7.134,4.309-7.134,8.397c0,0.469,0.034,0.939,0.119,1.425c0.691,4.164,4.309,7.125,8.405,7.125
			c0.469,0,0.93-0.034,1.408-0.119l58.266-9.711c0.017,0.435,0.068,0.862,0.068,1.297
			C136.534,361.473,109.731,388.267,76.801,388.267z M309.701,245.701c-1.024,1.024-1.775,2.295-2.176,3.686l-15.292,53.547h-107.11
			l-23.526-62.729c-0.964-2.568-3.098-4.514-5.751-5.239l-83.814-22.861l3.874-7.757c1.323-2.645,1.186-5.786-0.375-8.303
			c-1.562-2.509-4.301-4.045-7.262-4.045H46.201l-15.155-15.164l181.581,15.13c0.87,0.094,1.732,0.017,2.56-0.179l74.487-16.555
			l23.356,7.791c4.028,1.34,8.422-0.478,10.334-4.275l3.627-7.245l21.888,35.021L309.701,245.701z M435.201,388.267
			c-32.93,0-59.733-26.795-59.733-59.733c0-18.253,8.252-34.594,21.197-45.559l31.3,50.082c1.613,2.594,4.403,4.011,7.245,4.011
			c1.545,0,3.106-0.418,4.514-1.297c3.994-2.5,5.205-7.765,2.705-11.759l-31.309-50.099c7.381-3.26,15.514-5.111,24.081-5.111
			c32.93,0,59.733,26.795,59.733,59.733S468.14,388.267,435.201,388.267z"/>
	</g>
</g>
</svg>